<?xml version="1.0" encoding="iso-8859-1"?>
<!-- Generator: Adobe Illustrator 19.0.0, SVG Export Plug-In . SVG Version: 6.00 Build 0)  -->
<svg version="1.1" id="Layer_1" xmlns="http://www.w3.org/2000/svg" xmlns:xlink="http://www.w3.org/1999/xlink" x="0px" y="0px"
	 viewBox="0 0 511.999 511.999" style="enable-background:new 0 0 511.999 511.999;" xml:space="preserve">
<path style="fill:#989DE9;" d="M249.121,498.292c-5.986,0-11.968-2.281-16.534-6.846c-9.131-9.131-9.13-23.932,0.002-33.067
	l198.4-198.408c22.082-22.082,34.245-51.44,34.245-82.668s-12.16-60.586-34.245-82.668c-45.582-45.582-119.751-45.579-165.333,0
	L67.249,293.041c-27.346,27.352-27.343,71.851,0.005,99.203c27.351,27.349,71.854,27.346,99.2,0L348.324,210.37
	c9.119-9.116,9.119-23.948,0.003-33.067c-9.116-9.116-23.948-9.116-33.068,0.003L196.325,296.238c-9.131,9.133-23.937,9.13-33.068,0
	c-9.13-9.13-9.13-23.935,0-33.067L282.191,144.24c27.346-27.352,71.851-27.355,99.202-0.006
	c27.351,27.358,27.351,71.86-0.002,99.206L199.519,425.309c-22.788,22.788-52.734,34.184-82.668,34.188
	c-29.94,0.003-59.872-11.393-82.664-34.188c-45.581-45.579-45.582-119.75-0.006-165.335L232.59,61.569
	c63.819-63.814,167.651-63.817,231.465,0c30.916,30.914,47.944,72.015,47.944,115.734c-0.006,43.719-17.028,84.823-47.945,115.734
	L265.652,491.446C261.088,496.01,255.104,498.292,249.121,498.292z"/>
<g>
	<path style="fill:#7075E0;" d="M348.326,177.303c9.116,9.119,9.116,23.951-0.003,33.067L166.452,392.242
		c-14.654,14.653-34.236,21.449-53.465,20.395l-38.814,38.814c13.685,5.347,28.177,8.043,42.678,8.043
		c29.934-0.003,59.88-11.399,82.668-34.187L381.39,243.438c27.352-27.346,27.352-71.848,0.002-99.206l-33.068,33.07
		C348.326,177.303,348.326,177.303,348.326,177.303z"/>
	<path style="fill:#7075E0;" d="M464.054,293.038c30.917-30.911,47.939-72.015,47.945-115.734c0-43.719-17.028-84.82-47.942-115.734
		l-33.068,33.065c22.083,22.082,34.244,51.44,34.244,82.668s-12.163,60.586-34.245,82.668l-198.4,198.41
		c-9.131,9.133-9.133,23.935-0.002,33.067c4.567,4.567,10.55,6.846,16.534,6.846s11.968-2.284,16.531-6.846L464.054,293.038z"/>
</g>
<g>
</g>
<g>
</g>
<g>
</g>
<g>
</g>
<g>
</g>
<g>
</g>
<g>
</g>
<g>
</g>
<g>
</g>
<g>
</g>
<g>
</g>
<g>
</g>
<g>
</g>
<g>
</g>
<g>
</g>
</svg>
